# xmcd
# Track frame offsets:
# 150
# 17250
# 35457
# 51960
# 68171
# 84821
# 100121
# 117060
# 137678
#
# Disc length: 2046 seconds
# Revision: 0
# Processed by: cddbd v1.5.1PL0 Copyright (c) Steve Scherf et al.
# Submitted via: VisiTrax 2.9.10.228 - For more info visit www.synapsa.com
#
DISCID=6307fc09
DTITLE=Various Artist - Hits Monthly Nashville  PHN0211
DYEAR=1900
DGENRE=Karaoke
TTITLE0=Hill, Faith - Cry
TTITLE1=Paisley, Brad - I Wish You'd Stay
TTITLE2=Lonestar - Unusually Unusual
TTITLE3=Strait, George - Stars On The Water
TTITLE4=Lines, Aaron - You Can't Hide Beautiful
TTITLE5=Clark, Terri - I Just Wanna Be Mad
TTITLE6=Hanson, Jennifer - Beautiful Goodbye
TTITLE7=Cochran, Tammy - Life Happened
TTITLE8=Brooks and Dunn - Every River
EXTD=
EXTT0=
EXTT1=
EXTT2=
EXTT3=
EXTT4=
EXTT5=
EXTT6=
EXTT7=
EXTT8=
PLAYORDER=
